<?xml version="1.0" encoding="utf-8"?>
<!-- Generator: Adobe Illustrator 22.0.1, SVG Export Plug-In . SVG Version: 6.00 Build 0)  -->
<svg version="1.1" id="Ebene_1" xmlns="http://www.w3.org/2000/svg" xmlns:xlink="http://www.w3.org/1999/xlink" x="0px" y="0px"
	 width="16px" height="16px" viewBox="0 0 16 16" style="enable-background:new 0 0 16 16;" xml:space="preserve">
<style type="text/css">
	.st0{fill:none;stroke:#AAAAAA;stroke-width:1.5;stroke-linecap:round;stroke-linejoin:round;}
	.st1{fill:none;stroke:#E50505;stroke-width:1.5;stroke-linecap:round;stroke-linejoin:round;stroke-miterlimit:10;}
</style>
<g>
	<path class="st0" d="M10.7,2.6h1.4c0.7,0,1.4,0.6,1.4,1.4v9.5c0,0.7-0.6,1.4-1.4,1.4H3.9c-0.7,0-1.4-0.6-1.4-1.4V3.9
		c0-0.7,0.6-1.4,1.4-1.4h1.4"/>
	<path class="st0" d="M6,1.2H10c0.4,0,0.7,0.3,0.7,0.7v1.4c0,0.4-0.3,0.7-0.7,0.7H6c-0.4,0-0.7-0.3-0.7-0.7V1.9
		C5.3,1.6,5.6,1.2,6,1.2z"/>
</g>
<line class="st1" x1="6.2" y1="7.4" x2="9.8" y2="11"/>
<line class="st1" x1="9.8" y1="7.4" x2="6.2" y2="11"/>
</svg>
