<?xml version="1.0" encoding="utf-8"?>
<!-- Generator: Adobe Illustrator 22.1.0, SVG Export Plug-In . SVG Version: 6.00 Build 0)  -->
<svg version="1.1" id="Ebene_1" xmlns="http://www.w3.org/2000/svg" xmlns:xlink="http://www.w3.org/1999/xlink" x="0px" y="0px"
	 width="16px" height="16px" viewBox="0 0 16 16" style="enable-background:new 0 0 16 16;" xml:space="preserve">
<style type="text/css">
	.st0{fill:none;stroke:#346CA3;stroke-width:1.238;stroke-linecap:round;stroke-linejoin:round;}
</style>
<g>
	<path class="st0" d="M8.6,1.5l5,2.5c0.4,0.2,0.7,0.6,0.7,1.1v5.9c0,0.5-0.3,0.9-0.7,1.1l-5,2.5c-0.3,0.2-0.8,0.2-1.1,0l-5-2.5
		c-0.4-0.2-0.7-0.6-0.7-1.1V5c0-0.5,0.3-0.9,0.7-1.1l5-2.5C7.8,1.3,8.2,1.3,8.6,1.5z"/>
	<polyline class="st0" points="2,4.4 8,7.4 14,4.4 	"/>
	<line class="st0" x1="8" y1="14.7" x2="8" y2="7.4"/>
</g>
</svg>
