<?xml version="1.0" encoding="utf-8"?>
<!-- Generator: Adobe Illustrator 22.1.0, SVG Export Plug-In . SVG Version: 6.00 Build 0)  -->
<svg version="1.1" id="Ebene_1" xmlns="http://www.w3.org/2000/svg" xmlns:xlink="http://www.w3.org/1999/xlink" x="0px" y="0px"
	 width="16px" height="16px" viewBox="0 0 16 16" style="enable-background:new 0 0 16 16;" xml:space="preserve">
<style type="text/css">
	.st0{fill:#bbbbbb;}
</style>
<path class="st0" d="M2.7,11.7c-0.6,0-1.2-0.3-1.7-0.7c-0.3-0.3-0.5-0.6-0.5-1C0.5,9.5,0.4,9,0.4,8.4c0-0.5,0-1.1,0.1-1.6
	c0.1-0.4,0.3-0.7,0.5-1c0.4-0.5,1-0.7,1.7-0.7C3.9,5.1,5,6,5.1,7.2H3.8C3.7,6.7,3.3,6.3,2.7,6.3c-0.3,0-0.6,0.1-0.8,0.3
	C1.7,6.9,1.6,7.2,1.6,8.5s0,1.5,0.3,1.9c0.2,0.2,0.5,0.3,0.8,0.3c0.5,0,1-0.4,1.1-0.9h1.3C4.9,10.9,3.9,11.7,2.7,11.7z M7.9,11.7
	c-0.9,0.1-1.7-0.3-2.3-0.9L6.4,10c0.4,0.4,1,0.6,1.5,0.5c0.7,0,1.1-0.3,1.1-0.8c0-0.2-0.1-0.4-0.2-0.5C8.7,9.1,8.5,9,8.3,9l-0.8,0
	C7,8.9,6.6,8.7,6.3,8.4C5.9,8,5.7,7.5,5.8,7c0-1,0.8-1.9,1.8-1.9c0.1,0,0.2,0,0.4,0c0.8-0.1,1.5,0.2,2.1,0.7L9.3,6.7
	C8.9,6.4,8.5,6.2,8,6.2C7.3,6.2,7,6.6,7,7c0,0.2,0.1,0.3,0.2,0.5c0.2,0.1,0.4,0.2,0.6,0.2l0.8,0.1c0.4,0,0.9,0.2,1.2,0.5
	c0.3,0.4,0.5,0.9,0.5,1.4C10.2,11,9.2,11.7,7.9,11.7z M13.1,11.7c-0.9,0.1-1.7-0.3-2.3-0.9l0.8-0.8c0.4,0.4,1,0.6,1.5,0.5
	c0.7,0,1.1-0.3,1.1-0.8c0-0.2-0.1-0.4-0.2-0.5C13.9,9.1,13.7,9,13.5,9l-0.8,0c-0.5,0-0.9-0.2-1.2-0.5C11.1,8,11,7.5,11,7
	c0-1,0.8-1.9,1.8-1.9c0.1,0,0.2,0,0.4,0c0.8-0.1,1.5,0.2,2.1,0.7l-0.8,0.8c-0.4-0.3-0.8-0.5-1.3-0.4c-0.7,0-1,0.4-1,0.8
	c0,0.2,0.1,0.3,0.2,0.5c0.2,0.1,0.4,0.2,0.6,0.2l0.8,0.1c0.4,0,0.9,0.2,1.2,0.5c0.3,0.4,0.5,0.9,0.5,1.4
	C15.5,11,14.4,11.7,13.1,11.7z"/>
</svg>
