<?xml version="1.0" encoding="utf-8"?>
<!-- Generator: Adobe Illustrator 22.0.1, SVG Export Plug-In . SVG Version: 6.00 Build 0)  -->
<svg version="1.1" id="Ebene_1" xmlns="http://www.w3.org/2000/svg" xmlns:xlink="http://www.w3.org/1999/xlink" x="0px" y="0px"
	 width="16px" height="16px" viewBox="0 0 16 16" style="enable-background:new 0 0 16 16;" xml:space="preserve">
<style type="text/css">
	.st0{fill:#BBBBBB;}
</style>
<path class="st0" d="M8,5.7c1.3,0,2.3,1,2.3,2.3c0,1.3-1,2.3-2.3,2.3c-1.3,0-2.3-1-2.3-2.3C5.7,6.7,6.7,5.7,8,5.7 M7,0.9L6.5,2.6
	C6.1,2.7,5.6,2.9,5.2,3.1L3.7,2.3L2.3,3.7l0.9,1.6C2.9,5.6,2.7,6.1,2.6,6.5L0.9,7v2l1.7,0.5c0.1,0.4,0.3,0.9,0.5,1.3l-0.9,1.6
	l1.4,1.4l1.6-0.9c0.4,0.2,0.8,0.4,1.3,0.5L7,15.1h2l0.5-1.7c0.5-0.1,0.9-0.3,1.3-0.5l1.6,0.9l1.4-1.4l-0.9-1.6
	c0.2-0.4,0.4-0.8,0.5-1.3L15.1,9V7l-1.7-0.5c-0.1-0.5-0.3-0.9-0.5-1.3l0.9-1.6l-1.4-1.4l-1.6,0.9c-0.4-0.2-0.8-0.4-1.3-0.5L9,0.9
	L7,0.9L7,0.9z"/>
</svg>
