<?xml version="1.0" encoding="utf-8"?>
<!-- Generator: Adobe Illustrator 22.1.0, SVG Export Plug-In . SVG Version: 6.00 Build 0)  -->
<svg version="1.1" id="Ebene_1" xmlns="http://www.w3.org/2000/svg" xmlns:xlink="http://www.w3.org/1999/xlink" x="0px" y="0px"
	 width="16px" height="16px" viewBox="0 0 16 16" style="enable-background:new 0 0 16 16;" xml:space="preserve">
<style type="text/css">
	.st0{fill:#7f878d;}
	.st1{fill:#FFFFFF;}
</style>
<path class="st0" d="M7,0.9L6.5,2.6C6.1,2.7,5.6,2.9,5.2,3.1L3.7,2.3L2.3,3.7l0.9,1.6C2.9,5.6,2.7,6.1,2.6,6.5L0.9,7v2l1.7,0.5
	c0.1,0.4,0.3,0.9,0.5,1.3l-0.9,1.6l1.4,1.4l1.6-0.9c0.4,0.2,0.8,0.4,1.3,0.5L7,15.1h2l0.5-1.7c0.5-0.1,0.9-0.3,1.3-0.5l1.6,0.9
	l1.4-1.4l-0.9-1.6c0.2-0.4,0.4-0.8,0.5-1.3L15.1,9V7l-1.7-0.5c-0.1-0.5-0.3-0.9-0.5-1.3l0.9-1.6l-1.4-1.4l-1.6,0.9
	C10.4,2.9,10,2.7,9.5,2.6L9,0.9H7L7,0.9z"/>
<path class="st1" d="M8,5.7c1.3,0,2.3,1,2.3,2.3s-1,2.3-2.3,2.3S5.7,9.3,5.7,8S6.7,5.7,8,5.7"/>
</svg>
