<?xml version="1.0" encoding="utf-8"?>
<!-- Generator: Adobe Illustrator 22.1.0, SVG Export Plug-In . SVG Version: 6.00 Build 0)  -->
<svg version="1.1" id="Ebene_1" xmlns="http://www.w3.org/2000/svg" xmlns:xlink="http://www.w3.org/1999/xlink" x="0px" y="0px"
	 width="18px" height="18px" viewBox="0 0 18 18" style="enable-background:new 0 0 18 18;" xml:space="preserve">
<style type="text/css">
	.st0{fill:none;stroke:#D12C2C;stroke-width:1.282;stroke-linecap:round;stroke-linejoin:round;stroke-miterlimit:10;}
	.st1{fill:none;stroke:#939A9E;stroke-width:1.4;stroke-linecap:round;stroke-linejoin:round;}
	.st2{fill:none;stroke:#7F878D;stroke-width:1.4;stroke-linecap:round;stroke-linejoin:round;}
	.st3{fill:none;stroke:#7F878D;stroke-width:1.4;stroke-linecap:round;stroke-linejoin:round;stroke-dasharray:1.0161,2.0323;}
	.st4{fill:none;stroke:#7F878D;stroke-width:1.3;stroke-linecap:round;stroke-linejoin:round;}
	.st5{fill:none;stroke:#7F878D;stroke-width:1.3;stroke-linecap:round;stroke-linejoin:round;stroke-dasharray:0.72,1.44;}
	.st6{fill:none;stroke:#7F878D;stroke-width:1.3;stroke-linecap:round;stroke-linejoin:round;stroke-dasharray:0.74,1.48;}
</style>
<g>
	<g>
		<g>
			<line class="st0" x1="9.6" y1="9.4" x2="11.6" y2="11.4"/>
			<line class="st0" x1="9.6" y1="13.3" x2="11.6" y2="11.4"/>
		</g>
	</g>
	<line class="st0" x1="11.2" y1="11.4" x2="6.3" y2="11.4"/>
</g>
<path class="st1" d="M3.9,2.4"/>
<g>
	<g>
		<g>
			<polyline class="st2" points="10.1,2.4 9.7,2 9.2,2 			"/>
			<path class="st3" d="M7.2,2H4.8C4,2,3.4,2.7,3.4,3.4v11.2C3.4,15.3,4,16,4.8,16h8.4c0.8,0,1.4-0.6,1.4-1.4V6.9l-3.8-3.8"/>
		</g>
	</g>
	<g>
		<g>
			<line class="st4" x1="9.7" y1="2.2" x2="9.7" y2="2.7"/>
			<line class="st5" x1="9.7" y1="4.1" x2="9.7" y2="5.6"/>
			<polyline class="st4" points="9.7,6.3 9.7,6.8 10.2,6.8 			"/>
			<line class="st6" x1="11.7" y1="6.8" x2="13.2" y2="6.8"/>
			<line class="st4" x1="13.9" y1="6.8" x2="14.4" y2="6.8"/>
		</g>
	</g>
</g>
</svg>
