<?xml version="1.0" encoding="utf-8"?>
<!-- Generator: Adobe Illustrator 22.1.0, SVG Export Plug-In . SVG Version: 6.00 Build 0)  -->
<svg version="1.1" id="Ebene_1" xmlns="http://www.w3.org/2000/svg" xmlns:xlink="http://www.w3.org/1999/xlink" x="0px" y="0px"
	 width="16px" height="16px" viewBox="0 0 16 16" style="enable-background:new 0 0 16 16;" xml:space="preserve">
<style type="text/css">
	.st0{fill:none;stroke:#e3e3e3;stroke-width:1.5;stroke-linecap:round;stroke-linejoin:round;}
	.st1{fill:none;stroke:#e3e3e3;stroke-width:1.8;stroke-linecap:round;stroke-linejoin:round;stroke-miterlimit:10;}
</style>
<g>
	<path class="st0" d="M10.7,2.6h1.4c0.7,0,1.4,0.6,1.4,1.4v9.5c0,0.7-0.6,1.4-1.4,1.4H3.9c-0.7,0-1.4-0.6-1.4-1.4V3.9
		c0-0.7,0.6-1.4,1.4-1.4h1.4"/>
	<path class="st0" d="M6,1.2h4c0.4,0,0.7,0.3,0.7,0.7v1.4C10.7,3.7,10.4,4,10,4H6C5.6,4,5.3,3.7,5.3,3.3V1.9C5.3,1.6,5.6,1.2,6,1.2z
		"/>
</g>
<g>
	<g>
		<line class="st1" x1="10.8" y1="8" x2="8" y2="10.8"/>
		<line class="st1" x1="5.3" y1="8" x2="8" y2="10.8"/>
	</g>
</g>
</svg>
