<?xml version="1.0" encoding="utf-8"?>
<!-- Generator: Adobe Illustrator 22.1.0, SVG Export Plug-In . SVG Version: 6.00 Build 0)  -->
<svg version="1.1" id="Ebene_1" xmlns="http://www.w3.org/2000/svg" xmlns:xlink="http://www.w3.org/1999/xlink" x="0px" y="0px"
	 width="16px" height="16px" viewBox="0 0 16 16" style="enable-background:new 0 0 16 16;" xml:space="preserve">
<style type="text/css">
	.st0{fill:none;stroke:#497CB5;stroke-width:1.3439;stroke-linecap:round;stroke-linejoin:round;}
</style>
<g>
	<path class="st0" d="M6.7,8.7c1.1,1.5,3.2,1.8,4.7,0.7c0.1-0.1,0.3-0.2,0.4-0.3l2-2C15,5.7,15,3.6,13.7,2.3C12.4,1,10.3,1,9,2.3
		L7.8,3.4"/>
	<path class="st0" d="M9.3,7.3C8.2,5.8,6.1,5.5,4.6,6.7C4.5,6.7,4.4,6.9,4.3,7l-2,2C1,10.3,1,12.4,2.3,13.7C3.6,15,5.7,15,7,13.7
		l1.1-1.1"/>
</g>
</svg>
